<svg xmlns="http://www.w3.org/2000/svg" width="24" height="24" viewBox="0 0 24 24" fill="none" stroke="#6B7280" stroke-width="2" stroke-linecap="round" stroke-linejoin="round" class="lucide lucide-phone absolute left-2 top-2.5 h-4 w-4 text-gray-500" data-lov-id="src/pages/Index.tsx:190:28" data-lov-name="Phone" data-component-path="src/pages/Index.tsx" data-component-line="190" data-component-file="Index.tsx" data-component-name="Phone" data-component-content="%7B%22className%22%3A%22absolute%20left-2%20top-2.5%20h-4%20w-4%20text-gray-500%22%7D"><path d="M22 16.92v3a2 2 0 0 1-2.18 2 19.79 19.79 0 0 1-8.63-3.07 19.5 19.5 0 0 1-6-6 19.79 19.79 0 0 1-3.07-8.67A2 2 0 0 1 4.11 2h3a2 2 0 0 1 2 1.72 12.84 12.84 0 0 0 .7 2.81 2 2 0 0 1-.45 2.11L8.09 9.91a16 16 0 0 0 6 6l1.27-1.27a2 2 0 0 1 2.11-.45 12.84 12.84 0 0 0 2.81.7A2 2 0 0 1 22 16.92z"></path></svg>